<?xml version="1.0" encoding="iso-8859-1"?>
<!-- Generator: Adobe Illustrator 19.0.0, SVG Export Plug-In . SVG Version: 6.00 Build 0)  -->
<svg version="1.1" id="Layer_1" xmlns="http://www.w3.org/2000/svg" xmlns:xlink="http://www.w3.org/1999/xlink" x="0px" y="0px"
	 viewBox="0 0 349.533 349.533" style="enable-background:new 0 0 349.533 349.533;" xml:space="preserve">
<g>
	<g>
		<path d="M141.31,174.767L271.868,44.207c3.698-3.698,5.677-8.429,5.677-13.503c0-5.075-1.978-9.891-5.677-13.503L260.343,5.677
			c-7.311-7.569-19.437-7.569-27.092,0L77.665,161.263c-3.698,3.698-5.677,8.429-5.677,13.503c0,5.074,1.978,9.891,5.677,13.503
			l155.587,155.587c3.698,3.698,8.429,5.677,13.503,5.677s10.149-1.978,13.503-5.677l11.525-11.525
			c3.698-3.698,5.677-8.429,5.677-13.503c0-5.074-1.978-9.891-5.677-13.503L141.31,174.767z M268.17,328.375L256.645,339.9
			c-2.494,2.494-5.935,3.956-9.547,3.956c-3.698,0-7.052-1.376-9.547-3.956L81.965,184.313c-2.494-2.494-3.956-5.935-3.956-9.547
			c0-3.612,1.376-7.052,3.956-9.547L237.552,9.633c5.075-5.333,13.847-5.333,19.438-0.258L268.515,20.9
			c2.494,2.494,3.956,5.935,3.956,9.547c0,3.698-1.376,7.052-3.956,9.547L135.719,172.788c-0.602,0.602-0.86,1.118-0.86,1.978
			c0,0.86,0.258,1.376,0.86,1.978L268.17,309.195c2.494,2.494,3.956,5.935,3.956,9.547
			C272.126,322.354,270.664,325.881,268.17,328.375z"/>
	</g>
</g>
<g>
	<g>
		<path d="M259.139,311.516L122.13,174.508L259.14,37.499c1.72-1.978,2.838-4.472,2.838-7.052c0-2.838-0.86-5.074-2.838-7.052
			l-5.333-5.333c-3.956-3.956-10.149-3.956-14.105,0l-2.838,2.838c-1.118,1.118-1.118,2.838,0,3.956
			c1.118,1.118,2.838,1.118,3.956,0l2.838-2.838c1.72-1.72,4.472-1.72,6.193,0l5.333,5.333c0.602,0.86,1.118,1.978,1.118,3.097
			c0,1.118-0.258,2.236-1.118,3.097L116.196,172.53c-0.602,0.602-0.86,1.118-0.86,1.978s0.258,1.376,0.86,1.978l138.987,138.987
			c1.72,1.72,1.72,4.472,0,6.192l-5.333,5.333c-0.86,0.602-1.978,1.118-3.096,1.118c-1.118,0-2.236-0.258-3.096-1.118
			L94.522,177.863c-0.86-0.602-1.118-1.72-1.118-3.097c0-1.118,0.258-2.236,1.118-3.097L224.737,41.456
			c1.118-1.118,1.118-2.838,0-3.956c-1.118-1.118-2.838-1.118-3.956,0L90.565,167.714c-1.978,1.978-2.838,4.472-2.838,7.052
			c0,2.838,0.86,5.333,2.838,7.311l149.136,149.136c1.978,1.72,4.472,2.838,7.052,2.838c2.494,0,5.075-1.118,7.052-3.097
			l5.333-5.333C263.095,321.665,263.095,315.473,259.139,311.516z"/>
	</g>
</g>
<g>
</g>
<g>
</g>
<g>
</g>
<g>
</g>
<g>
</g>
<g>
</g>
<g>
</g>
<g>
</g>
<g>
</g>
<g>
</g>
<g>
</g>
<g>
</g>
<g>
</g>
<g>
</g>
<g>
</g>
</svg>
