<?xml version="1.0" encoding="iso-8859-1"?>
<!-- Generator: Adobe Illustrator 19.0.0, SVG Export Plug-In . SVG Version: 6.00 Build 0)  -->
<svg version="1.1" id="Layer_1" xmlns="http://www.w3.org/2000/svg" xmlns:xlink="http://www.w3.org/1999/xlink" x="0px" y="0px"
	 viewBox="0 0 349.533 349.533" style="enable-background:new 0 0 349.533 349.533;" xml:space="preserve">
<g>
	<g>
		<path d="M271.825,161.263L116.239,5.677C112.54,1.978,107.809,0,102.735,0s-9.891,1.978-13.503,5.677L77.707,17.201
			c-3.698,3.698-5.677,8.429-5.677,13.503s1.978,9.891,5.677,13.503l130.559,130.559L77.707,305.325
			c-3.698,3.698-5.677,8.429-5.677,13.503s1.978,9.891,5.677,13.503l11.525,11.525c3.698,3.698,8.429,5.677,13.503,5.677
			c5.333,0,10.149-1.978,13.503-5.677L271.826,188.27c3.698-3.698,5.677-8.429,5.677-13.503S275.524,164.876,271.825,161.263z
			 M267.869,184.657L112.282,340.244c-2.494,2.494-5.935,3.956-9.547,3.956c-3.698,0-7.052-1.376-9.547-3.956l-11.525-11.525
			c-2.494-2.494-3.956-5.935-3.956-9.547s1.376-7.052,3.956-9.547L214.458,176.83c0.602-0.602,0.86-1.118,0.86-1.978
			s-0.258-1.376-0.86-1.978L82.008,40.423c-2.494-2.494-3.956-5.935-3.956-9.547c0-3.698,1.376-7.052,3.956-9.547L93.533,9.804
			c2.494-2.494,5.935-3.956,9.547-3.956c3.698,0,7.052,1.376,9.289,4.214l155.586,155.587c2.494,2.494,3.956,5.935,3.956,9.547
			S270.449,182.077,267.869,184.657z"/>
	</g>
</g>
<g>
	<g>
		<path d="M259.182,167.714L137.654,46.186c-1.118-1.118-2.838-1.118-3.956,0c-1.118,1.118-1.118,2.838,0,3.956L255.226,171.67
			c0.86,0.602,1.118,1.72,1.118,3.097c0,1.118-0.258,2.236-1.118,3.097L105.832,327.257c-1.72,1.72-4.472,1.72-6.192,0l-5.333-5.333
			c-0.602-0.86-1.118-1.978-1.118-3.097c0-1.118,0.258-2.236,1.118-3.097l138.987-138.987c0.602-0.602,0.86-1.118,0.86-1.978
			c0-0.86-0.258-1.376-0.86-1.978L94.307,33.8c-0.602-0.86-1.118-1.978-1.118-3.097c0-1.118,0.258-2.236,1.118-3.097l5.333-5.333
			c1.72-1.72,4.472-1.72,6.192,0l10.407,10.407c1.118,1.118,2.838,1.118,3.956,0c1.118-1.118,1.118-2.838,0-3.956l-10.407-10.406
			c-3.698-3.698-10.407-3.698-14.105,0l-5.333,5.333c-1.72,1.978-2.838,4.214-2.838,7.052c0,2.838,0.86,5.074,2.838,7.052
			l137.009,137.009L90.35,311.775c-1.72,1.978-2.838,4.214-2.838,7.052c0,2.838,0.86,5.074,2.838,7.052l5.333,5.333
			c1.978,1.72,4.472,2.838,7.052,2.838c2.838,0,5.333-1.118,7.052-2.494l149.395-149.479c1.978-1.978,2.838-4.472,2.838-7.052
			C262.02,172.187,261.16,169.692,259.182,167.714z"/>
	</g>
</g>
<g>
</g>
<g>
</g>
<g>
</g>
<g>
</g>
<g>
</g>
<g>
</g>
<g>
</g>
<g>
</g>
<g>
</g>
<g>
</g>
<g>
</g>
<g>
</g>
<g>
</g>
<g>
</g>
<g>
</g>
</svg>
